HIERARCHY
ROOT Hips
{
 OFFSET 0.000000 0.000000 0.000000
 CHANNELS 6 Xposition Yposition Zposition Yrotation Xrotation Zrotation
 JOINT Chest
 {
  OFFSET 0.000000 9.585900 0.002600
  CHANNELS 3 Yrotation Xrotation Zrotation
  JOINT Chest2
  {
   OFFSET 0.000000 9.601200 -0.005300
   CHANNELS 3 Yrotation Xrotation Zrotation
   JOINT Chest3
   {
    OFFSET 0.000000 9.561800 0.000000
    CHANNELS 3 Yrotation Xrotation Zrotation
    JOINT Chest4
    {
     OFFSET 0.000000 9.552100 0.000000
     CHANNELS 3 Yrotation Xrotation Zrotation
     JOINT Neck
     {
      OFFSET 0.000000 14.453000 0.000000
      CHANNELS 3 Yrotation Xrotation Zrotation
      JOINT Head
      {
       OFFSET 0.000000 8.936500 -0.011300
       CHANNELS 3 Yrotation Xrotation Zrotation
       End Site
       {
        OFFSET 0.000000 17.073600 -0.006000
       }
      }
     }
     JOINT RightCollar
     {
      OFFSET -2.921100 9.558500 0.000000
      CHANNELS 3 Yrotation Xrotation Zrotation
      JOINT RightShoulder
      {
       OFFSET -13.519700 0.000000 0.000000
       CHANNELS 3 Yrotation Xrotation Zrotation
       JOINT RightElbow
       {
        OFFSET 0.000000 -29.696600 0.000000
        CHANNELS 3 Yrotation Xrotation Zrotation
        JOINT RightWrist
        {
         OFFSET 0.000000 -24.004700 0.000000
         CHANNELS 3 Yrotation Xrotation Zrotation
         End Site
         {
          OFFSET 0.000000 -17.728500 0.000000
         }
        }
       }
      }
     }
     JOINT LeftCollar
     {
      OFFSET 2.921100 9.558500 0.000000
      CHANNELS 3 Yrotation Xrotation Zrotation
      JOINT LeftShoulder
      {
       OFFSET 13.519700 0.000000 0.000000
       CHANNELS 3 Yrotation Xrotation Zrotation
       JOINT LeftElbow
       {
        OFFSET 0.000000 -29.696600 0.000000
        CHANNELS 3 Yrotation Xrotation Zrotation
        JOINT LeftWrist
        {
         OFFSET 0.000000 -24.004700 0.000000
         CHANNELS 3 Yrotation Xrotation Zrotation
         End Site
         {
          OFFSET 0.000000 -17.728500 0.000000
         }
        }
       }
      }
     }
    }
   }
  }
 }
 JOINT RightHip
 {
  OFFSET -7.771700 -0.012900 -0.001300
  CHANNELS 3 Yrotation Xrotation Zrotation
  JOINT RightKnee
  {
   OFFSET 0.000000 -40.869800 0.001200
   CHANNELS 3 Yrotation Xrotation Zrotation
   JOINT RightAnkle
   {
    OFFSET 0.000000 -39.717900 0.002100
    CHANNELS 3 Yrotation Xrotation Zrotation
    JOINT RightToe
    {
     OFFSET 0.000000 -4.965400 11.033500
     CHANNELS 3 Yrotation Xrotation Zrotation
     End Site
     {
      OFFSET 0.000000 -1.423100 5.872300
     }
    }
   }
  }
 }
 JOINT LeftHip
 {
  OFFSET 7.771700 -0.012900 -0.001300
  CHANNELS 3 Yrotation Xrotation Zrotation
  JOINT LeftKnee
  {
   OFFSET 0.000000 -40.869800 0.001200
   CHANNELS 3 Yrotation Xrotation Zrotation
   JOINT LeftAnkle
   {
    OFFSET 0.000000 -39.717900 0.002100
    CHANNELS 3 Yrotation Xrotation Zrotation
    JOINT LeftToe
    {
     OFFSET 0.000000 -4.965400 11.033500
     CHANNELS 3 Yrotation Xrotation Zrotation
     End Site
     {
      OFFSET 0.000000 -1.423100 5.872300
     }
    }
   }
  }
 }
}
MOTION
Frames: 15
Frame Time: 0.008333
-131.239975 52.186805 -53.927932 176.252778 -22.850972 -0.105739 -1.297785 12.592775 1.604274 -0.129617 0.903676 0.108956 -0.210826 1.612879 0.213909 -1.332537 11.351329 1.432307 -0.893944 18.119064 -1.796546 -0.589649 -6.620306 -1.728503 -2.313329 16.844017 7.418631 11.338028 -6.149328 -44.142901 133.003467 -40.599152 -176.437133 -2.055877 -5.348181 -4.142396 2.908791 13.643467 -11.049878 -1.156534 -5.524579 46.554544 -98.767857 -37.911465 162.713976 9.172191 -5.675903 -1.776220 -11.315425 -58.797984 4.169065 -67.672545 81.925414 -74.355375 -4.154385 -4.881145 4.955780 0.001430 -0.027439 -0.299595 11.873153 -57.578699 -8.961139 30.054354 84.504139 36.066903 -2.438482 -11.476899 0.997066 0.046063 0.078032 0.029535
-131.244760 52.197466 -53.939450 176.281387 -22.939292 -0.108897 -1.338069 12.615500 1.562832 -0.129784 0.886758 0.099723 -0.209124 1.632650 0.219932 -1.327858 11.391900 1.441733 -0.925821 18.151598 -1.816849 -0.580176 -6.577363 -1.711938 -2.306255 16.855606 7.470959 11.737772 -6.022293 -44.141208 133.798256 -41.231716 -176.835800 -2.228798 -5.309484 -3.929048 2.858015 13.664434 -11.089062 -1.342224 -5.459455 46.517341 -99.025896 -38.189291 162.660206 9.349755 -5.916446 -2.333770 -11.291081 -58.701423 4.119399 -67.772868 81.930246 -74.498106 -4.146568 -4.972621 5.104305 -0.000594 0.009301 -0.285517 11.802870 -57.485346 -8.944017 30.216469 84.493552 36.231468 -2.427820 -11.474340 0.981662 0.029513 0.071662 0.025728
-131.244807 52.206920 -53.947780 176.327069 -22.986923 -0.147340 -1.384421 12.592735 1.551305 -0.126987 0.889490 0.097337 -0.210434 1.635435 0.218817 -1.326738 11.432498 1.452573 -0.926583 18.176675 -1.811986 -0.593535 -6.540695 -1.718843 -2.300889 16.863205 7.521967 12.088760 -5.903190 -44.123908 134.627717 -41.833403 -177.260980 -2.381949 -5.247732 -3.762136 2.808437 13.686372 -11.125663 -1.519800 -5.386277 46.475447 -99.237953 -38.444112 162.602887 9.496868 -6.152167 -2.831029 -11.346285 -58.642815 4.139337 -67.847576 81.930208 -74.592584 -4.149891 -5.095737 5.225378 0.010595 0.076268 -0.290694 11.705112 -57.437708 -8.901508 30.203885 84.492621 36.234114 -2.400418 -11.450723 0.964918 0.012601 0.049373 0.019585
-131.248236 52.218756 -53.961378 176.371939 -23.050494 -0.164629 -1.432183 12.535754 1.491478 -0.124733 0.942702 0.120152 -0.211714 1.636632 0.217612 -1.352634 11.394517 1.412337 -0.905546 18.271484 -1.775431 -0.586172 -6.513462 -1.719894 -2.262389 16.950284 7.617488 12.397812 -5.784177 -44.095690 135.477658 -42.396541 -177.712811 -2.514540 -5.171810 -3.651189 2.797986 13.783260 -11.107402 -1.679630 -5.308094 46.430437 -99.416745 -38.670111 162.550787 9.618111 -6.376572 -3.262016 -11.376546 -58.574990 4.132743 -68.218480 81.923180 -75.020474 -4.122359 -5.263787 5.389452 -0.003414 0.143566 -0.317846 11.663268 -57.369229 -8.903803 30.060534 84.490334 36.104325 -2.382758 -11.431942 0.963523 0.000255 0.044414 0.012635
-131.251501 52.231660 -53.977038 176.411989 -23.115246 -0.183151 -1.469474 12.517512 1.450464 -0.125705 0.992551 0.144773 -0.213160 1.603539 0.199218 -1.362521 11.395946 1.402334 -0.926192 18.268915 -1.808276 -0.557652 -6.443566 -1.680647 -2.244985 17.003490 7.677287 12.670043 -5.668628 -44.050314 136.329047 -42.916858 -178.180870 -2.619675 -5.079631 -3.602062 2.773240 13.837972 -11.118506 -1.824706 -5.228579 46.387027 -99.559667 -38.867586 162.499767 9.718813 -6.586984 -3.622344 -11.407290 -58.514918 4.137256 -68.773727 81.914133 -75.637447 -4.091099 -5.465187 5.561404 -0.017266 0.214001 -0.341808 11.651969 -57.297351 -8.922119 30.123679 84.484276 36.192702 -2.385367 -11.422961 0.968794 -0.002328 0.034825 0.007558
-131.249929 52.242473 -53.988026 176.423320 -23.142936 -0.224746 -1.471280 12.481806 1.455048 -0.126683 0.975310 0.135106 -0.213293 1.634933 0.214971 -1.371571 11.373176 1.385208 -0.925260 18.293945 -1.807346 -0.541952 -6.395496 -1.655431 -2.225151 17.074982 7.721746 12.904613 -5.563097 -43.982347 137.170220 -43.391922 -178.651990 -2.691327 -4.966026 -3.618820 2.772803 13.904466 -11.102152 -1.978062 -5.152006 46.321465 -99.659580 -39.038057 162.442673 9.797500 -6.783318 -3.907801 -11.469496 -58.492249 4.209835 -69.165320 81.912348 -76.056917 -4.092782 -5.651016 5.692316 -0.011372 0.280553 -0.352027 11.773335 -57.266499 -9.005347 30.078221 84.495019 36.250675 -2.385488 -11.414795 0.968956 -0.005310 0.020182 0.009491
-131.252627 52.253856 -54.003093 176.452711 -23.188589 -0.250266 -1.495588 12.464123 1.437252 -0.126271 0.956980 0.125999 -0.213328 1.700137 0.245908 -1.384602 11.293050 1.342961 -0.920176 18.333485 -1.798915 -0.542912 -6.360921 -1.654454 -2.220548 17.157263 7.784931 13.123715 -5.437037 -43.917259 137.990555 -43.819361 -179.116473 -2.731849 -4.829001 -3.700640 2.754379 13.977318 -11.114463 -2.093052 -5.064936 46.288542 -99.715378 -39.183672 162.376099 9.853160 -6.963786 -4.119651 -11.461041 -58.475851 4.241168 -70.109556 81.885136 -77.044823 -4.121709 -5.890797 5.856544 0.001722 0.344336 -0.348565 11.767886 -57.221532 -9.000656 30.179387 84.496558 36.359204 -2.383956 -11.406740 0.977224 -0.025393 0.010275 0.015745
-131.255854 52.263405 -54.018741 176.481518 -23.232128 -0.275254 -1.519993 12.476394 1.435012 -0.126980 0.925183 0.111015 -0.211619 1.695858 0.242392 -1.386285 11.281615 1.335244 -0.921824 18.347293 -1.801409 -0.546301 -6.328085 -1.654323 -2.261068 17.191328 7.824815 13.341584 -5.276971 -43.831448 138.782475 -44.195744 -179.571800 -2.747713 -4.664975 -3.837498 2.741664 14.025503 -11.135100 -2.136972 -5.004419 46.300648 -99.818780 -39.347013 162.339176 9.890053 -7.118177 -4.268218 -11.472713 -58.448113 4.275080 -70.982294 81.863377 -77.963462 -4.153694 -6.184845 6.004322 -0.001627 0.432936 -0.337513 11.861844 -57.176486 -9.068690 30.272680 84.502470 36.503760 -2.401452 -11.399966 0.997709 -0.018437 0.003446 0.013862
-131.262346 52.268792 -54.032169 176.491220 -23.254220 -0.275491 -1.531815 12.466635 1.416319 -0.125107 0.897423 0.095651 -0.212780 1.638205 0.217733 -1.377800 11.360121 1.366859 -0.929517 18.311279 -1.824182 -0.550751 -6.303886 -1.654552 -2.267878 17.217203 7.841056 13.493030 -5.157934 -43.725731 139.547132 -44.519602 179.983189 -2.735906 -4.473710 -4.026066 2.742610 14.050121 -11.138085 -2.277584 -4.921423 46.214132 -99.749926 -39.414595 162.229680 9.909071 -7.235544 -4.363097 -11.454125 -58.442161 4.282046 -71.806046 81.827401 -78.820060 -4.192420 -6.520108 6.126940 -0.003491 0.541995 -0.319752 12.002596 -57.151300 -9.150622 30.688106 84.495958 36.923736 -2.461054 -11.405128 1.063675 -0.038661 -0.003874 0.008379
-131.269671 52.271069 -54.047464 176.504235 -23.281456 -0.270639 -1.547737 12.439672 1.376488 -0.123182 0.922643 0.109336 -0.209332 1.587615 0.193964 -1.376432 11.401536 1.382836 -0.932744 18.261461 -1.844559 -0.565635 -6.359236 -1.682046 -2.275920 17.240619 7.857507 13.620919 -5.036449 -43.611104 140.284838 -44.799284 179.550583 -2.699173 -4.266039 -4.267244 2.745978 14.045720 -11.172559 -2.391999 -4.818840 46.159046 -99.672962 -39.458932 162.128219 9.910576 -7.309872 -4.409636 -11.436934 -58.422094 4.265445 -72.633230 81.783671 -79.679379 -4.211385 -6.919142 6.260439 -0.025055 0.669431 -0.318284 12.102457 -57.120682 -9.213412 30.837992 84.508089 37.082403 -2.490855 -11.415840 1.096568 -0.043409 -0.007371 0.013342
-131.279811 52.271248 -54.067732 176.525907 -23.332169 -0.247557 -1.571503 12.435352 1.315686 -0.124796 0.947683 0.122355 -0.208418 1.584676 0.193691 -1.368987 11.282576 1.326016 -0.927256 18.310896 -1.810163 -0.568484 -6.400601 -1.690255 -2.297764 17.352223 7.905805 13.744158 -4.884646 -43.476391 140.992140 -45.042204 179.127247 -2.654473 -4.052762 -4.555134 2.761861 14.145375 -11.145694 -2.458717 -4.731644 46.122810 -99.643599 -39.510734 162.060981 9.900794 -7.339887 -4.413354 -11.380762 -58.392413 4.218698 -73.619336 81.715928 -80.703123 -4.244752 -7.314244 6.399962 -0.032860 0.754484 -0.313336 12.205766 -57.064129 -9.284171 30.941424 84.535102 37.181875 -2.517333 -11.436174 1.134201 -0.060025 -0.011813 0.021177
-131.283865 52.262692 -54.076340 176.483918 -23.301541 -0.234840 -1.528225 12.352641 1.296516 -0.124031 0.903989 0.101956 -0.209499 1.648815 0.224745 -1.367387 11.208139 1.292403 -0.922397 18.303299 -1.800697 -0.564207 -6.432853 -1.691013 -2.322687 17.420048 7.924072 13.859977 -4.724300 -43.339596 141.656874 -45.249213 178.711700 -2.614927 -3.839911 -4.875844 2.786719 14.207028 -11.134360 -2.504193 -4.656792 46.072510 -99.631740 -39.549564 162.014365 9.887539 -7.329863 -4.380612 -11.396891 -58.467275 4.343421 -74.494493 81.643779 -81.631303 -4.346026 -7.632294 6.497372 0.014587 0.785395 -0.280241 12.328730 -57.097954 -9.314723 30.848505 84.568685 37.093055 -2.549819 -11.460540 1.160196 -0.034782 -0.000848 0.026939
-131.302161 52.256770 -54.099889 176.537508 -23.353554 -0.163334 -1.598888 12.352106 1.174691 -0.125471 0.891880 0.095126 -0.207605 1.607841 0.207419 -1.361620 11.229463 1.299301 -0.914180 18.264394 -1.799554 -0.555714 -6.475836 -1.691369 -2.363873 17.441283 7.892764 13.981975 -4.537161 -43.165402 142.259481 -45.421996 178.314716 -2.583122 -3.630089 -5.206728 2.809095 14.266537 -11.110260 -2.520571 -4.609368 45.998116 -99.636812 -39.578241 161.989790 9.875100 -7.287994 -4.316705 -11.324703 -58.460097 4.237636 -75.573184 81.606862 -82.790144 -4.423361 -7.970244 6.626297 0.042951 0.754460 -0.252721 12.469193 -57.029332 -9.460501 30.889340 84.600863 37.097564 -2.613955 -11.488119 1.218317 -0.010591 0.006216 0.032174
-131.314163 52.249639 -54.126637 176.584341 -23.421678 -0.119150 -1.658383 12.375026 1.084874 -0.129820 0.892145 0.092220 -0.206680 1.584857 0.197668 -1.358315 11.215934 1.288318 -0.901777 18.220732 -1.796059 -0.543316 -6.524153 -1.690078 -2.364370 17.495323 7.896495 14.069348 -4.380303 -43.023547 142.782109 -45.562565 177.956479 -2.561901 -3.426841 -5.517601 2.838128 14.323424 -11.082296 -2.517573 -4.562406 45.921363 -99.657757 -39.598564 161.988520 9.864827 -7.230775 -4.224871 -11.299490 -58.434529 4.195448 -76.557660 81.591658 -83.856747 -4.515435 -8.288148 6.733533 0.075057 0.702660 -0.215723 12.552844 -56.954589 -9.535924 30.929182 84.638014 37.096942 -2.666481 -11.514035 1.263292 0.025336 0.014472 0.038340
-131.321252 52.237652 -54.147334 176.601570 -23.446783 -0.088690 -1.689011 12.361647 1.020368 -0.136639 0.890912 0.088889 -0.205722 1.575712 0.194166 -1.358014 11.186833 1.268022 -0.884398 18.175905 -1.790901 -0.525987 -6.573816 -1.688163 -2.358394 17.545372 7.901983 14.139116 -4.229654 -42.877026 143.212328 -45.673448 177.655177 -2.555711 -3.238642 -5.781547 2.885948 14.353580 -11.074211 -2.502448 -4.488285 45.863413 -99.697701 -39.608808 162.012022 9.856119 -7.173747 -4.104506 -11.303753 -58.447558 4.222748 -77.296675 81.578755 -84.668487 -4.622024 -8.536466 6.798188 0.128552 0.615467 -0.158951 12.631299 -56.930935 -9.581824 30.878744 84.682595 37.013769 -2.703859 -11.545797 1.295406 0.034609 0.023811 0.060060
